<?xml version="1.0" encoding="UTF-8" standalone="no"?>
<svg
   xmlns:dc="http://purl.org/dc/elements/1.1/"
   xmlns:cc="http://creativecommons.org/ns#"
   xmlns:rdf="http://www.w3.org/1999/02/22-rdf-syntax-ns#"
   xmlns:svg="http://www.w3.org/2000/svg"
   xmlns="http://www.w3.org/2000/svg"
   xmlns:xlink="http://www.w3.org/1999/xlink"
   xmlns:sodipodi="http://sodipodi.sourceforge.net/DTD/sodipodi-0.dtd"
   xmlns:inkscape="http://www.inkscape.org/namespaces/inkscape"
   width="100mm"
   height="100mm"
   viewBox="0 0 283.46455 283.46457"
   version="1.2"
   id="svg37"
   sodipodi:docname="flexibee.svg"
   inkscape:version="1.0.2 (e86c870879, 2021-01-15)">
  <metadata
     id="metadata43">
    <rdf:RDF>
      <cc:Work
         rdf:about="">
        <dc:format>image/svg+xml</dc:format>
        <dc:type
           rdf:resource="http://purl.org/dc/dcmitype/StillImage" />
        <dc:title></dc:title>
      </cc:Work>
    </rdf:RDF>
  </metadata>
  <defs
     id="defs41">
    <filter
       y="-0.25"
       height="1.5"
       inkscape:menu-tooltip="Darkens the edge with an inner blur and adds a flexible glow"
       inkscape:menu="Shadows and Glows"
       inkscape:label="Dark and Glow"
       style="color-interpolation-filters:sRGB;"
       id="filter989">
      <feGaussianBlur
         stdDeviation="5"
         result="result6"
         id="feGaussianBlur979" />
      <feComposite
         result="result8"
         in="SourceGraphic"
         operator="atop"
         in2="result6"
         id="feComposite981" />
      <feComposite
         result="result9"
         operator="over"
         in2="SourceAlpha"
         in="result8"
         id="feComposite983" />
      <feColorMatrix
         values="1 0 0 0 0 0 1 0 0 0 0 0 1 0 0 0 0 0 1 0 "
         result="result10"
         id="feColorMatrix985" />
      <feBlend
         in="result10"
         mode="normal"
         in2="result6"
         id="feBlend987" />
    </filter>
    <radialGradient
       id="radialGradient2506"
       gradientUnits="userSpaceOnUse"
       cy="0.40529999"
       cx="-18.299999"
       gradientTransform="matrix(-0.1316,1.117,-1.0576,-0.12462,33.357,39.585)"
       r="17.1"
       inkscape:collect="always">
      <stop
         id="stop1427"
         style="stop-color:#f0d81f"
         offset="0" />
      <stop
         id="stop1429"
         style="stop-color:#f07d0a"
         offset="1" />
    </radialGradient>
    <linearGradient
       id="linearGradient2508"
       y2="47.922001"
       gradientUnits="userSpaceOnUse"
       x2="27.857"
       gradientTransform="rotate(180,32,32)"
       y1="16.238001"
       x1="32"
       inkscape:collect="always">
      <stop
         id="stop1520"
         style="stop-color:#f3ac39;stop-opacity:.62876"
         offset="0" />
      <stop
         id="stop1522"
         style="stop-color:#fcba94;stop-opacity:.78261"
         offset="1" />
    </linearGradient>
    <linearGradient
       id="linearGradient2510"
       y2="47.922001"
       xlink:href="#linearGradient1552"
       gradientUnits="userSpaceOnUse"
       x2="27.857"
       gradientTransform="rotate(180,32.0135,32)"
       y1="16.238001"
       x1="32"
       inkscape:collect="always" />
    <linearGradient
       id="linearGradient1552">
      <stop
         id="stop1554"
         style="stop-color:#f9cc84"
         offset="0" />
      <stop
         id="stop1556"
         style="stop-color:#fed27f"
         offset="1" />
    </linearGradient>
    <linearGradient
       id="linearGradient2512"
       y2="16.238001"
       xlink:href="#linearGradient1552"
       gradientUnits="userSpaceOnUse"
       x2="30.302"
       gradientTransform="rotate(180,31.996,31.981)"
       y1="47.962002"
       x1="36.312"
       inkscape:collect="always" />
  </defs>
  <sodipodi:namedview
     pagecolor="#ffffff"
     bordercolor="#666666"
     borderopacity="1"
     objecttolerance="10"
     gridtolerance="10"
     guidetolerance="10"
     inkscape:pageopacity="0"
     inkscape:pageshadow="2"
     inkscape:window-width="1920"
     inkscape:window-height="1179"
     id="namedview39"
     showgrid="false"
     inkscape:zoom="2"
     inkscape:cx="77.54295"
     inkscape:cy="202.30005"
     inkscape:window-x="1920"
     inkscape:window-y="0"
     inkscape:window-maximized="1"
     inkscape:current-layer="svg37"
     units="mm"
     width="100mm"
     inkscape:document-rotation="0" />
  <rect
     style="fill:#faba01;fill-opacity:1;stroke:#979797;stroke-width:0.46198857;stroke-opacity:1"
     id="rect875"
     width="279.11725"
     height="279.11725"
     x="2.4846437"
     y="2.181092"
     ry="60.056908" />
  <g
     id="g873"
     transform="matrix(2.4972635,0,0,2.4972635,-524.76881,-458.20486)">
    <path
       style="fill:#ffffff;fill-opacity:1;fill-rule:nonzero;stroke:none"
       d="m 253.52734,186.60156 -26.73828,46.32813 h 26.73828 l 26.73047,-46.32813 h -26.73047"
       id="path28"
       inkscape:connector-curvature="0" />
    <path
       style="fill:#ffffff;fill-opacity:1;fill-rule:nonzero;stroke:none"
       d="m 285.9375,225.54687 -4.23438,7.38282 h 25.29297 l -12.66406,-21.94532 -8.39453,14.5625"
       id="path30"
       inkscape:connector-curvature="0" />
    <path
       style="fill:#ffffff;fill-opacity:1;fill-rule:nonzero;stroke:none"
       d="m 267.88281,211.48047 12.08985,20.95703 12.09765,-20.95703 z m 0,0"
       id="path32"
       inkscape:connector-curvature="0" />
    <path
       style="fill:#ffffff;fill-opacity:1;fill-rule:nonzero;stroke:none"
       d="M 268.96094,209.76172 H 293.625 l -12.32813,-21.375 z m 0,0"
       id="path34"
       inkscape:connector-curvature="0" />
  </g>
  <path
     class="st0"
     d="m 141.73227,130.3672 c -38.53753,0 -69.766225,31.2287 -69.766225,69.76624 0,38.53753 31.228695,69.76623 69.766225,69.76623 38.53754,0 69.76624,-31.2287 69.76624,-69.76623 0,-38.53754 -31.2287,-69.76624 -69.76624,-69.76624 z m -4.90024,27.159 h 9.75896 v 48.5872 h -9.75896 z m 4.90024,78.40396 c -18.85349,0 -34.09409,-15.28213 -34.09409,-34.13562 0,-15.36519 10.2573,-28.8201 25.08262,-32.8898 v 9.92508 c -9.46827,3.73747 -15.6974,12.832 -15.65587,23.00624 0,13.62103 11.04632,24.66735 24.70887,24.66735 13.62103,0 24.66735,-11.04632 24.66735,-24.70887 0,-10.13272 -6.22913,-19.26877 -15.65588,-22.96472 v -9.96661 c 14.82532,4.0697 25.08262,17.56614 25.08262,32.8898 -0.0415,18.89502 -15.28212,34.17715 -34.13562,34.17715 z"
     id="path6"
     style="fill:#e01b22;stroke-width:0.415275" />
  <g
     id="g889"
     transform="matrix(1.7615952,0,0,1.7615952,110.02357,85.74116)">
    <g
       id="g2499"
       transform="translate(-14,-13)">
      <path
         id="path2125"
         sodipodi:nodetypes="ccccsccccsccccc"
         style="fill:#a54005"
         d="m 42,50 c 1,0 1,-1 1,-1 V 32 c 1,-0.049 5,0 5,0 0.447,-0.009 0.846,-0.109 1.016,-0.523 0.17,-0.414 0.077,-0.889 -0.235,-1.209 l -16,-16 c -0.435,-0.422 -1.127,-0.422 -1.562,0 l -16,16 c -0.312,0.32 -0.405,0.795 -0.235,1.209 0.17,0.414 0.569,0.514 1.016,0.523 h 5 v 17.049 c 0,0 0,1 1,1 6,0 14,-0.049 20,-0.049 z" />
      <path
         id="path3636"
         style="fill:url(#radialGradient2506)"
         transform="rotate(180,32,32)"
         d="m 41.781,15.156 c -5.903,0.002 -13.643,0.061 -19.562,0.063 V 32 c 10e-4,0.649 -0.508,1.186 -1.157,1.219 -1.093,0.053 -4.057,0.008 -4.624,0 L 32,48.781 47.531,33.219 H 43 c -0.673,0 -1.219,-0.546 -1.219,-1.219 z" />
      <path
         id="path1511"
         sodipodi:nodetypes="ccscccsc"
         style="fill:url(#linearGradient2508)"
         d="m 23,47 c 0.906,1.031 17,1 18,0 C 42,46 40.878,32.89 40.906,32 41,29 45,31 44,29 42,26 33,17 32,17 c -1,0 -10,9 -12,12 -1,2 3,0 3.094,3 0.029,0.935 -1.188,14.031 -0.094,15 z" />
      <path
         id="path1548"
         sodipodi:nodetypes="ccccc"
         style="fill:url(#linearGradient2510)"
         d="m 44.027,29 c -2,-3 -11,-12 -12,-12 -1,0 -7.027,5.459 -9.027,8.502 0.973,0 4,-3.502 9,-3.502 4,0 9,9 12.027,7 z" />
      <path
         id="path1558"
         sodipodi:nodetypes="cscsccc"
         style="fill:url(#linearGradient2512)"
         d="m 31.965,47.724 c 4.262,-0.004 8.531,-0.25 9.031,-0.75 0.699,-0.698 0.4,-6.176 0.157,-10.188 C 41,34 41,34 40,37 c -3.493,10.479 -16.082,8.316 -17.41,7.943 0.063,1.007 0.175,1.826 0.406,2.031 0.454,0.515 4.707,0.754 8.969,0.75 z" />
    </g>
  </g>
</svg>
